<?xml version="1.0" encoding="iso-8859-1"?>
<!-- Generator: Adobe Illustrator 22.0.1, SVG Export Plug-In . SVG Version: 6.00 Build 0)  -->
<svg version="1.1" xmlns="http://www.w3.org/2000/svg" xmlns:xlink="http://www.w3.org/1999/xlink" x="0px" y="0px"
	 viewBox="0 0 128 128" style="enable-background:new 0 0 128 128;" xml:space="preserve">
<g id="_x33_">
	<path style="fill:#FFB9A1;" d="M66.422,31.415c-18.764,0-33.967,15.203-33.967,33.954c0,18.764,15.203,33.967,33.967,33.967
		c18.751,0,33.954-15.203,33.954-33.967C100.376,46.618,85.173,31.415,66.422,31.415z M85.265,71.235
		c-0.681,7.032-5.932,8.904-13.435,9.31l-8.538-0.065c-1.048,0-6.036-0.026-7.11-0.039l-5.801-0.013l0.904-5.316
		c0,0,3.3,0.052,3.234,0.013c1.27,0,1.598-0.904,1.689-1.48l0.039-11.68h0.471c-0.183-0.026-0.353-0.039-0.471-0.039l0.026-8.341
		c-0.17-0.904-0.746-1.951-2.553-1.964c0.052-0.052-3.234,0-3.234,0l0.013-4.766l6.141,0.026l0.013,0.026
		c0.917,0,5.788-0.013,6.757-0.026l8.551,0.039c2.868,0.262,5.447,0.838,7.372,2.017c1.912,1.165,3.169,2.946,3.418,5.578
		c0.367,3.863-1.257,6.181-3.85,7.477C83.144,63.038,85.802,65.579,85.265,71.235z M76.453,70.332
		c-0.013,5.526-9.493,4.871-12.505,4.858l0.026-9.808C66.998,65.395,76.479,64.557,76.453,70.332z M64.026,51.987L64,60.891
		c2.514,0,10.41,0.615,10.436-4.413C74.449,51.227,66.54,52,64.026,51.987z"/>
	<path style="fill:#2D2D2D;" d="M125.656,91.025c-1.244-2.305-3.311-3.988-5.822-4.738c-1.791-0.537-3.657-0.551-5.417-0.062
		l-3.456-6.404l-11.165-1.441c1.727-4.262,2.629-8.861,2.617-13.602c-0.019-7.698-2.474-14.833-6.62-20.692l6.724-8.674l5.022,0.182
		c0.34,1.794,1.179,3.459,2.453,4.83c1.784,1.918,4.207,3.027,6.824,3.122c2.635,0.095,5.115-0.835,7.034-2.618
		c1.918-1.784,3.027-4.208,3.122-6.826c0.195-5.404-4.042-9.96-9.445-10.155c-2.599-0.091-5.116,0.835-7.034,2.619
		c-1.37,1.274-2.327,2.874-2.796,4.639l-7.272-0.264l-7.46,9.622c-6.124-6.706-14.738-11.095-24.352-11.701v-9.495
		c4.353-1.001,7.609-4.907,7.609-9.559c0-5.407-4.4-9.806-9.806-9.806c-5.407,0-9.807,4.399-9.807,9.806
		c0,4.652,3.257,8.559,7.61,9.559v9.482c-8.822,0.507-17.038,4.178-23.323,10.479c-1.662,1.667-3.138,3.469-4.422,5.381
		l-11.235-1.449l-2.386-4.422c1.374-1.202,2.385-2.769,2.921-4.561c0.75-2.51,0.478-5.161-0.766-7.466
		c-2.567-4.759-8.528-6.54-13.287-3.973c-4.758,2.568-6.54,8.528-3.974,13.287h0.001c2.209,4.095,6.931,5.982,11.236,4.798
		l3.458,6.407l11.651,1.503c-2.415,4.901-3.693,10.329-3.678,15.958c0.011,4.328,0.79,8.479,2.206,12.326l-7.143,9.215l-5.021-0.182
		c-0.34-1.794-1.179-3.46-2.453-4.83c-1.784-1.918-4.207-3.027-6.826-3.122c-5.368-0.165-9.96,4.041-10.155,9.445
		s4.041,9.96,9.444,10.156h0.001c0.122,0.004,0.243,0.006,0.364,0.006c2.485,0,4.84-0.925,6.67-2.625
		c1.37-1.274,2.326-2.875,2.796-4.639l7.273,0.264l7.094-9.151c5.746,10.738,16.762,18.25,29.554,19.055v7.928
		c-4.353,1-7.61,4.906-7.61,9.558c0,5.407,4.4,9.806,9.807,9.806c5.407,0,9.806-4.399,9.806-9.806c0-4.652-3.257-8.559-7.609-9.558
		v-7.915c8.819-0.508,17.033-4.179,23.316-10.478c2.317-2.323,4.267-4.912,5.843-7.691l10.39,1.34l2.389,4.424
		c-3.356,2.948-4.367,7.931-2.158,12.026c1.772,3.281,5.156,5.146,8.648,5.146c1.571,0,3.164-0.378,4.64-1.175
		C126.441,101.745,128.224,95.785,125.656,91.025L125.656,91.025z M113.488,29.783c1.01-0.939,2.31-1.449,3.682-1.449
		c0.066,0,0.133,0.001,0.2,0.004c2.982,0.108,5.321,2.623,5.214,5.605c-0.053,1.445-0.665,2.783-1.724,3.768
		c-1.06,0.985-2.443,1.483-3.882,1.445c-1.445-0.052-2.782-0.664-3.768-1.723c-0.984-1.059-1.498-2.437-1.445-3.883
		C111.817,32.105,112.43,30.768,113.488,29.783z M21.567,33.017c-0.414,1.385-1.343,2.526-2.615,3.213
		c-2.628,1.418-5.917,0.434-7.334-2.193h0.001c-1.417-2.626-0.433-5.917,2.193-7.333c2.627-1.416,5.917-0.434,7.334,2.193
		C21.831,30.168,21.981,31.632,21.567,33.017z M14.511,91.96c-1.058,0.984-2.435,1.495-3.882,1.445
		c-2.982-0.109-5.321-2.623-5.213-5.606c0.052-1.444,0.664-2.782,1.723-3.767c1.058-0.985,2.432-1.496,3.883-1.445
		c1.445,0.052,2.783,0.664,3.767,1.723c0.985,1.059,1.498,2.437,1.445,3.883C16.182,89.637,15.57,90.975,14.511,91.96z
		 M61.005,9.806c0-2.984,2.428-5.412,5.413-5.412c2.985,0,5.412,2.428,5.412,5.412c0,2.985-2.427,5.413-5.412,5.413
		C63.433,15.22,61.005,12.792,61.005,9.806z M71.831,118.194c0,2.984-2.427,5.412-5.412,5.412c-2.985,0-5.413-2.428-5.413-5.412
		s2.428-5.412,5.413-5.412C69.403,112.781,71.831,115.209,71.831,118.194z M88.82,87.139c-5.952,5.967-13.879,9.254-22.318,9.254
		c-17.43,0-31.646-14.183-31.691-31.615c-0.022-8.443,3.245-16.379,9.198-22.348c5.953-5.968,13.879-9.255,22.32-9.255
		c17.43,0,31.647,14.183,31.691,31.615C98.042,73.233,94.775,81.17,88.82,87.139z M119.597,100.446
		c-2.626,1.42-5.919,0.433-7.335-2.192c-1.417-2.627-0.433-5.917,2.194-7.335c0.801-0.432,1.676-0.652,2.562-0.652
		c0.521,0,1.046,0.076,1.558,0.23c1.386,0.414,2.526,1.342,3.213,2.615v-0.001C123.206,95.739,122.222,99.029,119.597,100.446z
		 M66.018,62.38c2.623,0,6.331-0.244,8.392-2.258c0.983-0.959,1.483-2.182,1.492-3.64c0.004-1.525-0.505-2.798-1.512-3.785
		c-2.389-2.344-6.83-2.244-9.469-2.187c-0.34,0.007-0.633,0.008-0.888,0.013l-1.468-0.007l-0.034,11.84l2.206,0.009
		C65.119,62.372,65.551,62.38,66.018,62.38z M65.487,53.427c2.02-0.028,5.467,0.002,6.851,1.36c0.435,0.426,0.635,0.961,0.634,1.683
		c-0.003,0.659-0.197,1.154-0.609,1.557c-1.389,1.357-4.797,1.447-6.894,1.419L65.487,53.427z M81.997,61.554
		c1.735-1.771,2.493-4.205,2.211-7.179c-0.277-2.946-1.662-5.197-4.111-6.688c-1.674-1.026-3.863-1.709-6.668-2.078l0.023-6.004
		c0.003-0.809-0.651-1.468-1.459-1.47c-0.003,0-0.004,0-0.006,0c-0.807,0-1.462,0.652-1.465,1.459l-0.021,5.854l-5.621-0.026
		l0.021-5.857c0.003-0.809-0.651-1.467-1.46-1.47c-0.001,0-0.004,0-0.005,0c-0.807,0-1.462,0.652-1.465,1.46l-0.021,5.87
		c-1.342,0.007-3.219,0.012-4.382,0.015l-8.53-0.057l-0.021,7.725l1.493-0.024c0.744-0.012,1.576-0.021,2.188-0.023l1.012,0.023
		c0.821,0.006,1.01,0.277,1.099,0.649l-0.064,19.772c-0.021,0.086-0.041,0.127-0.039,0.133c-0.018,0.006-0.073,0.021-0.186,0.021
		l-1.142,0.001l-0.003,0.011c-0.593-0.004-1.357-0.014-2.067-0.025l-1.257-0.02l-1.403,8.262l7.516,0.016
		c0.798,0.009,3.755,0.026,5.658,0.035l-0.021,5.946c-0.003,0.809,0.651,1.467,1.46,1.47c0.001,0,0.004,0,0.005,0
		c0.807,0,1.462-0.652,1.465-1.46l0.021-5.94l5.608,0.042l-0.02,5.927c-0.003,0.809,0.651,1.467,1.459,1.47c0.003,0,0.004,0,0.006,0
		c0.807,0,1.462-0.652,1.465-1.46l0.021-6.02c6.397-0.519,12.644-2.415,13.432-10.542C87.172,66.637,85.585,63.346,81.997,61.554z
		 M83.808,71.093c-0.515,5.299-3.883,7.54-12.012,7.987l-7.034-0.054l-1.47-0.011c-1.045,0-6.022-0.026-7.107-0.039l-4.071-0.009
		l0.403-2.373c0.898,0.011,1.538,0.009,2.001-0.025v0.02c1.669,0,2.87-1.04,3.136-2.715l0.084-20.424l-0.026-0.137
		c-0.37-1.962-1.859-3.143-3.982-3.158v0.005c-0.413-0.031-0.978-0.036-1.776-0.026l0.004-1.809l4.694,0.046
		c0.915,0,5.761-0.014,6.763-0.026l8.474,0.039c2.965,0.276,5.149,0.865,6.68,1.803c1.643,1.001,2.533,2.461,2.723,4.465
		c0.277,2.935-0.691,4.85-3.048,6.029l-3.557,1.779l3.861,0.953C82.65,64.425,84.223,66.723,83.808,71.093z M65.043,63.903
		c-0.408,0.009-0.775,0.011-1.063,0.014l-1.467-0.006l-0.035,12.737l2.284,0.018c0.487,0.009,1.039,0.019,1.637,0.019
		c3.184,0,7.624-0.287,9.96-2.575c1.03-1.009,1.555-2.279,1.558-3.775c0.007-1.568-0.525-2.891-1.581-3.93
		C73.621,63.733,68.257,63.838,65.043,63.903z M74.987,70.328c-0.001,0.701-0.217,1.237-0.678,1.689
		c-1.755,1.719-6.269,1.769-8.894,1.73l0.019-6.922c2.48-0.046,7.093-0.059,8.847,1.667c0.486,0.478,0.711,1.061,0.707,1.832V70.328
		z"/>
</g>
<g id="Layer_1">
</g>
</svg>
